# MagicaVoxel @ Ephtracy

# group
o 

# material
mtllib fishing_rod_2.vox.mtl
usemtl palette

# normals
vn -1 0 0
vn 1 0 0
vn 0 0 1
vn 0 0 -1
vn 0 -1 0
vn 0 1 0

# texcoords
vt 0.802734 0.5
vt 0.826172 0.5
vt 0.837891 0.5
vt 0.927734 0.5

# verts
v -0.3 1.6 0
v -0.3 1.6 -0.4
v -0.3 1.7 -0.1
v -0.3 1.7 -0.4
v -0.3 1.7 -4
v -0.3 1.8 0
v -0.3 1.8 -0.1
v -0.3 2 0
v -0.3 2 -4
v -0.3 2.1 0
v -0.3 2.1 -4
v -0.2 1.3 -0.1
v -0.2 1.3 -0.3
v -0.2 1.4 0
v -0.2 1.4 -0.1
v -0.2 1.4 -0.3
v -0.2 1.4 -0.4
v -0.2 1.6 0
v -0.2 1.6 -0.1
v -0.2 1.6 -0.3
v -0.2 1.6 -0.4
v -0.2 1.6 -0.5
v -0.2 1.7 -0.4
v -0.2 1.7 -0.5
v -0.1 1.6 -0.1
v -0.1 1.6 -0.3
v -0.1 1.7 -0.1
v -0.1 1.7 -0.2
v -0.1 1.7 -0.3
v -0.2 1.6 -0.1
v -0.2 1.6 -0.3
v -0.2 1.7 -0.1
v -0.2 1.7 -0.2
v -0.2 1.7 -0.3
v -0.1 1.3 -0.1
v -0.1 1.3 -0.3
v -0.1 1.4 0
v -0.1 1.4 -0.1
v -0.1 1.4 -0.3
v -0.1 1.4 -0.4
v -0.1 1.6 0
v -0.1 1.6 -0.1
v -0.1 1.6 -0.3
v -0.1 1.6 -0.4
v -0.1 1.6 -0.5
v -0.1 1.7 -0.4
v -0.1 1.7 -0.5
v 0 1.6 0
v 0 1.6 -0.4
v 0 1.7 -0.1
v 0 1.7 -0.4
v 0 1.7 -4
v 0 1.8 0
v 0 1.8 -0.1
v 0 2 0
v 0 2 -4
v 0 2.1 0
v 0 2.1 -4
v -0.3 1.6 0
v -0.3 1.8 0
v -0.3 2 0
v -0.3 2.1 0
v -0.2 1.4 0
v -0.2 1.6 0
v -0.1 1.4 0
v -0.1 1.6 0
v 0 1.6 0
v 0 1.8 0
v 0 2 0
v 0 2.1 0
v -0.2 1.3 -0.1
v -0.2 1.4 -0.1
v -0.1 1.3 -0.1
v -0.1 1.4 -0.1
v -0.2 1.4 -0.3
v -0.2 1.6 -0.3
v -0.2 1.7 -0.3
v -0.1 1.4 -0.3
v -0.1 1.6 -0.3
v -0.1 1.7 -0.3
v -0.2 1.4 -0.1
v -0.2 1.6 -0.1
v -0.2 1.7 -0.1
v -0.1 1.4 -0.1
v -0.1 1.6 -0.1
v -0.1 1.7 -0.1
v -0.2 1.3 -0.3
v -0.2 1.4 -0.3
v -0.1 1.3 -0.3
v -0.1 1.4 -0.3
v -0.3 1.6 -0.4
v -0.3 1.7 -0.4
v -0.2 1.4 -0.4
v -0.2 1.6 -0.4
v -0.2 1.7 -0.4
v -0.1 1.4 -0.4
v -0.1 1.6 -0.4
v -0.1 1.7 -0.4
v 0 1.6 -0.4
v 0 1.7 -0.4
v -0.2 1.6 -0.5
v -0.2 1.7 -0.5
v -0.1 1.6 -0.5
v -0.1 1.7 -0.5
v -0.3 1.7 -4
v -0.3 2 -4
v -0.3 2.1 -4
v 0 1.7 -4
v 0 2 -4
v 0 2.1 -4
v -0.2 1.3 -0.1
v -0.1 1.3 -0.1
v -0.2 1.3 -0.3
v -0.1 1.3 -0.3
v -0.2 1.4 0
v -0.1 1.4 0
v -0.2 1.4 -0.1
v -0.1 1.4 -0.1
v -0.2 1.4 -0.3
v -0.1 1.4 -0.3
v -0.2 1.4 -0.4
v -0.1 1.4 -0.4
v -0.3 1.6 0
v -0.2 1.6 0
v -0.1 1.6 0
v 0 1.6 0
v -0.2 1.6 -0.1
v -0.1 1.6 -0.1
v -0.2 1.6 -0.3
v -0.1 1.6 -0.3
v -0.3 1.6 -0.4
v -0.2 1.6 -0.4
v -0.1 1.6 -0.4
v 0 1.6 -0.4
v -0.2 1.6 -0.5
v -0.1 1.6 -0.5
v -0.2 1.7 -0.1
v -0.1 1.7 -0.1
v -0.2 1.7 -0.2
v -0.1 1.7 -0.2
v -0.2 1.7 -0.3
v -0.1 1.7 -0.3
v -0.3 1.7 -0.4
v -0.2 1.7 -0.4
v -0.1 1.7 -0.4
v 0 1.7 -0.4
v -0.2 1.7 -0.5
v -0.1 1.7 -0.5
v -0.3 1.7 -4
v 0 1.7 -4
v -0.2 1.4 -0.1
v -0.1 1.4 -0.1
v -0.2 1.4 -0.3
v -0.1 1.4 -0.3
v -0.3 2.1 0
v 0 2.1 0
v -0.3 2.1 -4
v 0 2.1 -4

# faces
f 3/3/1 2/3/1 1/3/1
f 4/3/1 2/3/1 3/3/1
f 6/3/1 3/3/1 1/3/1
f 7/4/1 5/4/1 4/4/1
f 7/3/1 3/3/1 6/3/1
f 7/4/1 4/4/1 3/4/1
f 8/4/1 7/4/1 6/4/1
f 9/4/1 5/4/1 7/4/1
f 9/4/1 7/4/1 8/4/1
f 10/1/1 9/1/1 8/1/1
f 11/1/1 9/1/1 10/1/1
f 15/3/1 13/3/1 12/3/1
f 16/3/1 13/3/1 15/3/1
f 18/3/1 15/3/1 14/3/1
f 19/3/1 15/3/1 18/3/1
f 20/3/1 17/3/1 16/3/1
f 21/3/1 17/3/1 20/3/1
f 23/3/1 22/3/1 21/3/1
f 24/3/1 22/3/1 23/3/1
f 27/3/1 26/3/1 25/3/1
f 28/3/1 26/3/1 27/3/1
f 29/3/1 26/3/1 28/3/1
f 30/3/2 31/3/2 32/3/2
f 32/3/2 31/3/2 33/3/2
f 33/3/2 31/3/2 34/3/2
f 35/3/2 36/3/2 38/3/2
f 38/3/2 36/3/2 39/3/2
f 37/3/2 38/3/2 41/3/2
f 41/3/2 38/3/2 42/3/2
f 39/3/2 40/3/2 43/3/2
f 43/3/2 40/3/2 44/3/2
f 44/3/2 45/3/2 46/3/2
f 46/3/2 45/3/2 47/3/2
f 48/3/2 49/3/2 50/3/2
f 50/3/2 49/3/2 51/3/2
f 48/3/2 50/3/2 53/3/2
f 51/4/2 52/4/2 54/4/2
f 53/3/2 50/3/2 54/3/2
f 50/4/2 51/4/2 54/4/2
f 53/4/2 54/4/2 55/4/2
f 54/4/2 52/4/2 56/4/2
f 55/4/2 54/4/2 56/4/2
f 55/1/2 56/1/2 57/1/2
f 57/1/2 56/1/2 58/1/2
f 64/3/3 60/3/3 59/3/3
f 65/3/3 64/3/3 63/3/3
f 66/3/3 60/3/3 64/3/3
f 66/3/3 64/3/3 65/3/3
f 67/3/3 60/3/3 66/3/3
f 68/4/3 61/4/3 60/4/3
f 68/3/3 60/3/3 67/3/3
f 69/1/3 62/1/3 61/1/3
f 69/4/3 61/4/3 68/4/3
f 70/1/3 62/1/3 69/1/3
f 73/3/3 72/3/3 71/3/3
f 74/3/3 72/3/3 73/3/3
f 78/3/3 76/3/3 75/3/3
f 78/3/3 77/3/3 76/3/3
f 79/3/3 77/3/3 78/3/3
f 80/3/3 77/3/3 79/3/3
f 81/3/4 82/3/4 84/3/4
f 82/3/4 83/3/4 84/3/4
f 84/3/4 83/3/4 85/3/4
f 85/3/4 83/3/4 86/3/4
f 87/3/4 88/3/4 89/3/4
f 89/3/4 88/3/4 90/3/4
f 91/3/4 92/3/4 94/3/4
f 94/3/4 92/3/4 95/3/4
f 93/3/4 94/3/4 96/3/4
f 96/3/4 94/3/4 97/3/4
f 97/3/4 98/3/4 99/3/4
f 99/3/4 98/3/4 100/3/4
f 101/3/4 102/3/4 103/3/4
f 103/3/4 102/3/4 104/3/4
f 105/4/4 106/4/4 108/4/4
f 106/1/4 107/1/4 109/1/4
f 108/4/4 106/4/4 109/4/4
f 109/1/4 107/1/4 110/1/4
f 113/3/5 112/3/5 111/3/5
f 114/3/5 112/3/5 113/3/5
f 117/3/5 116/3/5 115/3/5
f 118/3/5 116/3/5 117/3/5
f 121/3/5 120/3/5 119/3/5
f 122/3/5 120/3/5 121/3/5
f 127/3/5 124/3/5 123/3/5
f 128/3/5 126/3/5 125/3/5
f 129/3/5 127/3/5 123/3/5
f 130/3/5 126/3/5 128/3/5
f 131/3/5 129/3/5 123/3/5
f 132/3/5 129/3/5 131/3/5
f 133/3/5 126/3/5 130/3/5
f 134/3/5 126/3/5 133/3/5
f 135/3/5 133/3/5 132/3/5
f 136/3/5 133/3/5 135/3/5
f 139/2/5 138/2/5 137/2/5
f 140/2/5 138/2/5 139/2/5
f 141/4/5 140/4/5 139/4/5
f 142/4/5 140/4/5 141/4/5
f 147/4/5 144/4/5 143/4/5
f 148/4/5 146/4/5 145/4/5
f 149/4/5 147/4/5 143/4/5
f 149/4/5 148/4/5 147/4/5
f 150/4/5 146/4/5 148/4/5
f 150/4/5 148/4/5 149/4/5
f 151/3/6 152/3/6 153/3/6
f 153/3/6 152/3/6 154/3/6
f 155/1/6 156/1/6 157/1/6
f 157/1/6 156/1/6 158/1/6
